# xmcd CD database file
#
# Track frame offsets:
#	150
#	20778
#	41694
#	55413
#	70038
#	86053
#	102300
#	115922
#	128723
#	149563
#	167567
#	180153
#	194169
#	205381
#	221271
#	235463
#
# Disc length: 3324 seconds
#
# Revision: 0
# Processed by: cddbd v1.5.2PL0 Copyright (c) Steve Scherf et al.
# Submitted via: CDex 1.70beta2
#
DISCID=f00cfa10
DTITLE=Jones Country - Jones Country JCY-025
DYEAR=0000
DGENRE=Country
TTITLE0=Conway Twitty/Fallin' For You For Years
TTITLE1=Conway Twitty/Red Neckin' Love Makin' Night
TTITLE2=Jerry Wallace/In The Misty Moonlight
TTITLE3=Steve Wariner/Midnight Fire
TTITLE4=Keith Whitley and Lorrie Morgan/'Til A Tear Becomes A Rose
TTITLE5=Don Williams/I've Been Loved By The Best
TTITLE6=Don Williams/Miracles
TTITLE7=Don Williams/You're My Best Friend
TTITLE8=Hank Williams Jr/Ain't Misbehavin'
TTITLE9=Hank Williams Jr/All My Friends (Have Settled Down)
TTITLE10=Hank Williams Jr/If Heaven Ain't A Lot Like Dixie
TTITLE11=Hank Williams Jr/Old Habits
TTITLE12=Hank Williams Jr/Texas Women
TTITLE13=Hank Williams Jr/Young Country
TTITLE14=Tammy Wynette and Ricky Skaggs/Your Love
TTITLE15=Dwight Yoakam/Little Sister
EXTD=YEAR: 0000
EXTT0=
EXTT1=
EXTT2=
EXTT3=
EXTT4=
EXTT5=
EXTT6=
EXTT7=
EXTT8=
EXTT9=
EXTT10=
EXTT11=
EXTT12=
EXTT13=
EXTT14=
EXTT15=
PLAYORDER=
